HIERARCHY
ROOT SpineBase
{
  OFFSET 0.000000 0.000000 0.000000
  CHANNELS 6 Xposition Yposition Zposition Zrotation Xrotation Yrotation
  JOINT SpineMid
  {
    OFFSET 0.000000 27.396238 0.000000
    CHANNELS 3 Zrotation Xrotation Yrotation
    JOINT SpineShoulder
    {
      OFFSET -0.094537 20.331352 -0.649121
      CHANNELS 3 Zrotation Xrotation Yrotation
      JOINT Neck
      {
        OFFSET -0.082212 6.744563 -0.535348
        CHANNELS 3 Zrotation Xrotation Yrotation
        JOINT Head
        {
          OFFSET 1.340788 11.915994 -0.635433
          CHANNELS 3 Zrotation Xrotation Yrotation
          End Site
          {
            OFFSET 0 0 0
          }
        }
      }
      JOINT ShoulderLeft
      {
        OFFSET -11.208410 -3.263419 -8.747663
        CHANNELS 3 Zrotation Xrotation Yrotation
        JOINT ElbowLeft
        {
          OFFSET -1.504721 -20.780704 -4.267249
          CHANNELS 3 Zrotation Xrotation Yrotation
          JOINT WristLeft
          {
            OFFSET 7.212963 -20.129489 -2.612924
            CHANNELS 3 Zrotation Xrotation Yrotation
            JOINT HandLeft
            {
              OFFSET 1.442927 -5.759595 4.748640
              CHANNELS 3 Zrotation Xrotation Yrotation
              JOINT HandTipLeft
              {
                OFFSET -1.543865 -4.570465 -0.290182
                CHANNELS 3 Zrotation Xrotation Yrotation
                End Site
                {
                  OFFSET 0 0 0
                }
              }
              JOINT ThumbLeft
              {
                OFFSET -5.898793 -1.023038 -2.737940
                CHANNELS 3 Zrotation Xrotation Yrotation
                End Site
                {
                  OFFSET 0 0 0
                }
              }
            }
          }
        }
      }
      JOINT ShoulderRight
      {
        OFFSET 11.479626 -3.521295 2.647211
        CHANNELS 3 Zrotation Xrotation Yrotation
        JOINT ElbowRight
        {
          OFFSET 2.989656 -20.484075 3.176275
          CHANNELS 3 Zrotation Xrotation Yrotation
          JOINT WristRight
          {
            OFFSET -2.585141 -22.312021 -14.637044
            CHANNELS 3 Zrotation Xrotation Yrotation
            JOINT HandRight
            {
              OFFSET -2.451444 -1.681321 -1.758551
              CHANNELS 3 Zrotation Xrotation Yrotation
              JOINT HandTipRight
              {
                OFFSET -2.391071 -2.083787 -1.012443
                CHANNELS 3 Zrotation Xrotation Yrotation
                End Site
                {
                  OFFSET 0 0 0
                }
              }
              JOINT ThumbRight
              {
                OFFSET 1.523966 -0.971974 -0.913006
                CHANNELS 3 Zrotation Xrotation Yrotation
                End Site
                {
                  OFFSET 0 0 0
                }
              }
            }
          }
        }
      }
    }
  }
  JOINT HipLeft
  {
    OFFSET -5.689052 1.111922 -5.939164
    CHANNELS 3 Zrotation Xrotation Yrotation
    JOINT KneeLeft
    {
      OFFSET -2.570716 -28.630808 4.983861
      CHANNELS 3 Zrotation Xrotation Yrotation
      JOINT AnkleLeft
      {
        OFFSET 0.211308 -32.343580 11.978920
        CHANNELS 3 Zrotation Xrotation Yrotation
        JOINT FootLeft
        {
          OFFSET 3.396908 -3.844362 -7.393085
          CHANNELS 3 Zrotation Xrotation Yrotation
          End Site
          {
            OFFSET 0 0 0
          }
        }
      }
    }
  }
  JOINT HipRight
  {
    OFFSET 5.252741 -0.016629 -0.424198
    CHANNELS 3 Zrotation Xrotation Yrotation
    JOINT KneeRight
    {
      OFFSET -0.241423 -25.931809 5.803817
      CHANNELS 3 Zrotation Xrotation Yrotation
      JOINT AnkleRight
      {
        OFFSET -5.430219 -35.162385 10.254748
        CHANNELS 3 Zrotation Xrotation Yrotation
        JOINT FootRight
        {
          OFFSET 4.002257 -2.406837 -10.165211
          CHANNELS 3 Zrotation Xrotation Yrotation
          End Site
          {
            OFFSET 0 0 0
          }
        }
      }
    }
  }
}
MOTION
Frames: 10
Frame Time: 0.033333
16.596901 63.376799 384.540015 -19.113983 -37.090511 -3.408364 0.540136 -0.227313 -3.977028 -0.153719 0.941337 -0.856788 -25.127348 20.669739 16.499960 0.000000 0.000000 0.000000 -16.272465 -6.090830 17.065728 35.252427 18.706607 -24.864866 -20.398686 26.045732 -2.819723 64.804566 -10.236258 27.934953 0.000000 0.000000 0.000000 0.000000 0.000000 0.000000 21.940767 21.197514 -7.702557 -13.245256 62.344715 3.644478 -18.598522 12.012087 -37.311101 64.014943 -3.130998 21.496483 0.000000 0.000000 0.000000 0.000000 0.000000 0.000000 33.796172 49.751352 -19.105555 -3.286410 -2.978235 0.997455 51.165024 3.722120 -50.459610 0.000000 0.000000 0.000000 22.977239 37.371249 -10.837617 13.258842 13.127253 0.226904 -30.356918 17.048870 58.080071 0.000000 0.000000 0.000000
16.247861 62.820134 384.987822 -19.750938 -37.478796 -6.940428 0.654142 0.769927 -0.646176 -0.073190 0.904968 -0.895905 -28.030444 15.915003 16.620626 0.000000 0.000000 0.000000 -12.775446 -5.704940 15.120176 28.525318 19.945629 -21.864974 -17.558448 30.157294 -0.729381 61.509506 -14.843150 29.509127 0.000000 0.000000 0.000000 0.000000 0.000000 0.000000 20.787396 21.899618 -7.067213 -8.590737 59.389689 0.694732 0.616893 -4.867096 -37.873447 36.197489 -1.970700 19.509010 0.000000 0.000000 0.000000 0.000000 0.000000 0.000000 32.514793 51.387623 -15.933201 -4.323719 -2.147502 0.606886 33.915442 4.358938 -33.346787 0.000000 0.000000 0.000000 22.035979 39.705908 -7.716690 12.859944 12.618581 0.246191 -28.928408 17.722239 54.651985 0.000000 0.000000 0.000000
15.781562 62.480749 385.325679 -20.375959 -37.687729 -18.104478 0.620143 0.802458 10.192366 -0.105018 0.833952 -0.916918 -31.114437 14.409734 17.779096 0.000000 0.000000 0.000000 -10.862187 -6.904751 14.178855 27.868778 23.287987 -21.432885 -16.963048 27.560288 -2.580187 59.061119 -12.565164 27.250969 0.000000 0.000000 0.000000 0.000000 0.000000 0.000000 19.600331 17.408323 -7.280999 -6.353203 60.564798 0.198945 12.755526 -15.801071 -33.036053 16.414787 0.307116 15.325301 0.000000 0.000000 0.000000 0.000000 0.000000 0.000000 22.577784 54.578396 -1.210728 -6.241955 0.421950 -0.177260 16.802918 4.682662 -13.136913 0.000000 0.000000 0.000000 14.398911 45.442304 5.379085 11.453497 10.812626 0.338129 -27.542914 7.010983 52.723804 0.000000 0.000000 0.000000
15.389534 62.768584 385.316283 -21.270424 -37.635197 -36.535978 0.575064 0.774842 28.216281 -0.036954 0.762761 -0.975116 -35.227611 10.226393 18.523286 0.000000 0.000000 0.000000 -7.204693 -6.992841 12.414821 23.139907 26.555960 -18.634007 -15.370448 28.671426 -2.826177 57.791652 -13.988314 27.696703 0.000000 0.000000 0.000000 0.000000 0.000000 0.000000 18.860233 16.625474 -7.230757 -3.360731 58.964207 -1.263214 20.011512 -21.504012 -28.426975 4.986949 2.814461 11.993450 0.000000 0.000000 0.000000 0.000000 0.000000 0.000000 3.355574 54.459292 26.318327 -8.281397 5.898843 -1.042246 4.938672 -0.258770 0.176944 0.000000 0.000000 0.000000 -7.554156 51.771980 34.032061 10.240812 6.910011 0.861175 -26.816318 -2.423112 52.789176 0.000000 0.000000 0.000000
14.660334 62.188407 385.657440 -22.067046 -37.503184 -46.319137 0.406971 0.856643 37.739994 -0.033062 0.746760 -1.008781 -38.248320 6.771178 18.655761 0.000000 0.000000 0.000000 -5.024181 -7.252330 11.380653 19.886649 27.831537 -16.773083 -13.601373 30.160402 -2.256688 59.354176 -14.920540 28.403966 0.000000 0.000000 0.000000 0.000000 0.000000 0.000000 18.415369 15.725396 -7.162813 -1.008453 57.591228 -2.287958 23.728182 -23.742138 -25.715062 -1.140955 4.571838 10.039978 0.000000 0.000000 0.000000 0.000000 0.000000 0.000000 -2.465027 53.038400 38.150760 -10.817659 9.872692 -1.807045 2.485832 3.087409 6.666938 0.000000 0.000000 0.000000 -23.600999 53.486486 52.741620 9.487074 3.316968 1.320553 -26.930850 -3.965366 53.101191 0.000000 0.000000 0.000000
13.625126 61.189796 386.135539 -22.854054 -37.099062 -49.983828 0.239870 0.913539 41.240390 -0.134725 0.622893 -1.035080 -39.946319 4.202185 18.328789 0.000000 0.000000 0.000000 -4.020688 -7.395845 11.001797 18.486513 27.575497 -16.084139 -12.053192 31.114309 -1.526801 60.271517 -14.183599 27.572381 0.000000 0.000000 0.000000 0.000000 0.000000 0.000000 17.903699 14.923822 -6.999866 1.494847 56.788669 -3.307844 24.778427 -24.123127 -24.779570 -3.415296 5.379208 9.248901 0.000000 0.000000 0.000000 0.000000 0.000000 0.000000 -0.251103 53.092070 39.902310 -13.878530 12.413067 -2.517205 3.464501 13.029709 11.351463 0.000000 0.000000 0.000000 -30.434955 54.021117 60.579410 9.942134 1.314794 1.939950 -28.073944 0.260073 53.372921 0.000000 0.000000 0.000000
12.365739 59.818403 386.829853 -23.415122 -36.551709 -49.921015 0.069762 0.726097 41.172101 -0.225395 0.476325 -1.072846 -40.773421 2.337691 17.845466 0.000000 0.000000 0.000000 -1.383935 -7.332403 9.776968 14.138826 27.958671 -13.617525 -8.573372 32.683296 -0.346156 58.496808 -15.588576 26.377860 0.000000 0.000000 0.000000 0.000000 0.000000 0.000000 17.458555 14.580718 -6.796867 3.863187 56.131644 -4.269944 22.977356 -22.377702 -26.099844 -2.053418 4.930045 9.744689 0.000000 0.000000 0.000000 0.000000 0.000000 0.000000 6.018921 54.598021 35.961936 -17.526525 13.645939 -3.280346 9.738306 25.680151 9.474142 0.000000 0.000000 0.000000 -30.467422 54.718723 60.973806 11.796156 1.088954 2.851756 -30.683075 15.359723 54.229393 0.000000 0.000000 0.000000
11.102172 57.956546 387.565048 -23.986961 -35.994286 -46.949418 -0.105172 0.423101 38.211457 -0.238042 0.419619 -1.121656 -41.418177 -0.148053 16.966234 0.000000 0.000000 0.000000 -0.892840 -8.713800 9.605129 14.828285 29.321724 -13.802980 -6.812057 33.931643 0.847698 56.546019 -16.810973 24.979112 0.000000 0.000000 0.000000 0.000000 0.000000 0.000000 17.660627 14.047510 -6.803031 5.253356 55.575778 -4.854669 23.210976 -22.303507 -25.870846 -3.171053 5.122858 9.593889 0.000000 0.000000 0.000000 0.000000 0.000000 0.000000 16.016782 55.929425 27.030544 -21.054003 14.102767 -4.047001 25.965521 38.784186 -3.758733 0.000000 0.000000 0.000000 -24.275817 56.038400 54.909643 13.625923 2.316969 3.378880 -32.022791 26.742585 52.748061 0.000000 0.000000 0.000000
9.825069 56.630711 386.784640 -24.345584 -36.043649 -40.883863 -0.266475 0.298974 32.078197 -0.228237 0.505477 -1.132888 -41.781034 -1.932386 16.371816 0.000000 0.000000 0.000000 0.182743 -13.551420 8.805323 19.061325 35.727917 -16.150367 -7.436568 30.910348 0.286607 56.100837 -16.689856 23.783055 0.000000 0.000000 0.000000 0.000000 0.000000 0.000000 18.110466 14.071540 -6.897912 5.469863 55.448780 -4.961679 26.385000 -25.577863 -21.786257 -6.790891 7.446466 6.618833 0.000000 0.000000 0.000000 0.000000 0.000000 0.000000 29.719768 54.839795 13.124814 -24.360456 14.774716 -4.749370 53.172947 48.108481 -27.983530 0.000000 0.000000 0.000000 -14.105224 58.961290 43.627387 14.463743 -1.636619 5.113499 -33.152384 32.770393 52.547970 0.000000 0.000000 0.000000
8.693519 53.459140 389.641731 -25.397841 -34.704966 -30.719498 -0.302032 0.274991 21.885986 -0.143358 0.566782 -1.189739 -41.660678 -4.736354 14.469349 0.000000 0.000000 0.000000 -3.335647 -10.064290 10.924404 23.489629 28.584594 -18.234142 -7.532216 34.206867 2.579889 57.590773 -18.959630 25.085575 0.000000 0.000000 0.000000 0.000000 0.000000 0.000000 20.016882 12.935836 -7.163963 4.132718 56.001550 -4.442429 22.174588 -21.449501 -27.092885 -0.917553 4.704770 10.070044 0.000000 0.000000 0.000000 0.000000 0.000000 0.000000 48.091386 57.667996 -7.972743 -27.484838 5.343577 -6.947687 65.594277 35.497640 -43.056576 0.000000 0.000000 0.000000 11.673207 52.112226 18.201644 17.266249 14.091847 0.530289 -36.200152 24.620314 50.794797 0.000000 0.000000 0.000000
